TITLE ""
FILE "2Q_j_1528-1541.mp3" MP3
  TRACK 01 AUDIO
    TITLE "2Q_j_1528-1541_01"
    INDEX 01 00:00:00
  TRACK 02 AUDIO
    TITLE "2Q_j_1528-1541_02"
    INDEX 01 00:00:14
  TRACK 03 AUDIO
    TITLE "2Q_j_1528-1541_03"
    INDEX 01 00:01:49
  TRACK 04 AUDIO
    TITLE "2Q_j_1528-1541_04"
    INDEX 01 00:02:19
  TRACK 05 AUDIO
    TITLE "2Q_j_1528-1541_05"
    INDEX 01 00:04:20
  TRACK 06 AUDIO
    TITLE "2Q_j_1528-1541_06"
    INDEX 01 00:04:65
  TRACK 07 AUDIO
    TITLE "2Q_j_1528-1541_07"
    INDEX 01 00:07:67
  TRACK 08 AUDIO
    TITLE "2Q_j_1528-1541_08"
    INDEX 01 00:08:39
  TRACK 09 AUDIO
    TITLE "2Q_j_1528-1541_09"
    INDEX 01 00:09:58
  TRACK 10 AUDIO
    TITLE "2Q_j_1528-1541_10"
    INDEX 01 00:10:28
  TRACK 11 AUDIO
    TITLE "2Q_j_1528-1541_11"
    INDEX 01 00:12:61
  TRACK 12 AUDIO
    TITLE "2Q_j_1528-1541_12"
    INDEX 01 00:13:31
  TRACK 13 AUDIO
    TITLE "2Q_j_1528-1541_13"
    INDEX 01 00:19:15
  TRACK 14 AUDIO
    TITLE "2Q_j_1528-1541_14"
    INDEX 01 00:19:64
  TRACK 15 AUDIO
    TITLE "2Q_j_1528-1541_15"
    INDEX 01 00:21:12
  TRACK 16 AUDIO
    TITLE "2Q_j_1528-1541_16"
    INDEX 01 00:21:58
  TRACK 17 AUDIO
    TITLE "2Q_j_1528-1541_17"
    INDEX 01 00:22:73
  TRACK 18 AUDIO
    TITLE "2Q_j_1528-1541_18"
    INDEX 01 00:23:43
  TRACK 19 AUDIO
    TITLE "2Q_j_1528-1541_19"
    INDEX 01 00:26:02
  TRACK 20 AUDIO
    TITLE "2Q_j_1528-1541_20"
    INDEX 01 00:26:53
  TRACK 21 AUDIO
    TITLE "2Q_j_1528-1541_21"
    INDEX 01 00:28:26
  TRACK 22 AUDIO
    TITLE "2Q_j_1528-1541_22"
    INDEX 01 00:28:73
  TRACK 23 AUDIO
    TITLE "2Q_j_1528-1541_23"
    INDEX 01 00:31:01
  TRACK 24 AUDIO
    TITLE "2Q_j_1528-1541_24"
    INDEX 01 00:31:46
  TRACK 25 AUDIO
    TITLE "2Q_j_1528-1541_25"
    INDEX 01 00:34:31
  TRACK 26 AUDIO
    TITLE "2Q_j_1528-1541_26"
    INDEX 01 00:35:11
  TRACK 27 AUDIO
    TITLE "2Q_j_1528-1541_27"
    INDEX 01 00:36:51
  TRACK 28 AUDIO
    TITLE "2Q_j_1528-1541_28"
    INDEX 01 00:37:21
  TRACK 29 AUDIO
    TITLE "2Q_j_1528-1541_29"
    INDEX 01 00:40:59
  TRACK 30 AUDIO
    TITLE "2Q_j_1528-1541_30"
    INDEX 01 00:41:29
  TRACK 31 AUDIO
    TITLE "2Q_j_1528-1541_31"
    INDEX 01 00:44:47
  TRACK 32 AUDIO
    TITLE "2Q_j_1528-1541_32"
    INDEX 01 00:45:17
  TRACK 33 AUDIO
    TITLE "2Q_j_1528-1541_33"
    INDEX 01 00:46:54
  TRACK 34 AUDIO
    TITLE "2Q_j_1528-1541_34"
    INDEX 01 00:47:27
  TRACK 35 AUDIO
    TITLE "2Q_j_1528-1541_35"
    INDEX 01 00:49:05
  TRACK 36 AUDIO
    TITLE "2Q_j_1528-1541_36"
    INDEX 01 00:49:50
  TRACK 37 AUDIO
    TITLE "2Q_j_1528-1541_37"
    INDEX 01 00:52:36
  TRACK 38 AUDIO
    TITLE "2Q_j_1528-1541_38"
    INDEX 01 00:53:12
  TRACK 39 AUDIO
    TITLE "2Q_j_1528-1541_39"
    INDEX 01 00:54:55
  TRACK 40 AUDIO
    TITLE "2Q_j_1528-1541_40"
    INDEX 01 00:55:27
  TRACK 41 AUDIO
    TITLE "2Q_j_1528-1541_41"
    INDEX 01 00:59:13
  TRACK 42 AUDIO
    TITLE "2Q_j_1528-1541_42"
    INDEX 01 00:59:58
  TRACK 43 AUDIO
    TITLE "2Q_j_1528-1541_43"
    INDEX 01 01:04:65
  TRACK 44 AUDIO
    TITLE "2Q_j_1528-1541_44"
    INDEX 01 01:05:35
  TRACK 45 AUDIO
    TITLE "2Q_j_1528-1541_45"
    INDEX 01 01:06:60
  TRACK 46 AUDIO
    TITLE "2Q_j_1528-1541_46"
    INDEX 01 01:07:30
  TRACK 47 AUDIO
    TITLE "2Q_j_1528-1541_47"
    INDEX 01 01:11:42
  TRACK 48 AUDIO
    TITLE "2Q_j_1528-1541_48"
    INDEX 01 01:12:12
  TRACK 49 AUDIO
    TITLE "2Q_j_1528-1541_49"
    INDEX 01 01:14:73
  TRACK 50 AUDIO
    TITLE "2Q_j_1528-1541_50"
    INDEX 01 01:15:41
  TRACK 51 AUDIO
    TITLE "2Q_j_1528-1541_51"
    INDEX 01 01:17:13
  TRACK 52 AUDIO
    TITLE "2Q_j_1528-1541_52"
    INDEX 01 01:17:60
  TRACK 53 AUDIO
    TITLE "2Q_j_1528-1541_53"
    INDEX 01 01:19:20
  TRACK 54 AUDIO
    TITLE "2Q_j_1528-1541_54"
    INDEX 01 01:19:65
  TRACK 55 AUDIO
    TITLE "2Q_j_1528-1541_55"
    INDEX 01 01:22:26
  TRACK 56 AUDIO
    TITLE "2Q_j_1528-1541_56"
    INDEX 01 01:23:02
  TRACK 57 AUDIO
    TITLE "2Q_j_1528-1541_57"
    INDEX 01 01:24:40
  TRACK 58 AUDIO
    TITLE "2Q_j_1528-1541_58"
    INDEX 01 01:25:12
  TRACK 59 AUDIO
    TITLE "2Q_j_1528-1541_59"
    INDEX 01 01:26:41
  TRACK 60 AUDIO
    TITLE "2Q_j_1528-1541_60"
    INDEX 01 01:27:11
  TRACK 61 AUDIO
    TITLE "2Q_j_1528-1541_61"
    INDEX 01 01:30:66
  TRACK 62 AUDIO
    TITLE "2Q_j_1528-1541_62"
    INDEX 01 01:31:35
  TRACK 63 AUDIO
    TITLE "2Q_j_1528-1541_63"
    INDEX 01 01:32:67
  TRACK 64 AUDIO
    TITLE "2Q_j_1528-1541_64"
    INDEX 01 01:33:39
  TRACK 65 AUDIO
    TITLE "2Q_j_1528-1541_65"
    INDEX 01 01:35:50
  TRACK 66 AUDIO
    TITLE "2Q_j_1528-1541_66"
    INDEX 01 01:36:20
  TRACK 67 AUDIO
    TITLE "2Q_j_1528-1541_67"
    INDEX 01 01:40:08
  TRACK 68 AUDIO
    TITLE "2Q_j_1528-1541_68"
    INDEX 01 01:40:61
  TRACK 69 AUDIO
    TITLE "2Q_j_1528-1541_69"
    INDEX 01 01:43:63
  TRACK 70 AUDIO
    TITLE "2Q_j_1528-1541_70"
    INDEX 01 01:44:35
  TRACK 71 AUDIO
    TITLE "2Q_j_1528-1541_71"
    INDEX 01 01:47:57
  TRACK 72 AUDIO
    TITLE "2Q_j_1528-1541_72"
    INDEX 01 01:48:27
  TRACK 73 AUDIO
    TITLE "2Q_j_1528-1541_73"
    INDEX 01 01:52:25
  TRACK 74 AUDIO
    TITLE "2Q_j_1528-1541_74"
    INDEX 01 01:52:72
  TRACK 75 AUDIO
    TITLE "2Q_j_1528-1541_75"
    INDEX 01 01:54:36
  TRACK 76 AUDIO
    TITLE "2Q_j_1528-1541_76"
    INDEX 01 01:55:06
  TRACK 77 AUDIO
    TITLE "2Q_j_1528-1541_77"
    INDEX 01 01:58:33
  TRACK 78 AUDIO
    TITLE "2Q_j_1528-1541_78"
    INDEX 01 01:59:04
  TRACK 79 AUDIO
    TITLE "2Q_j_1528-1541_79"
    INDEX 01 02:02:27
  TRACK 80 AUDIO
    TITLE "2Q_j_1528-1541_80"
    INDEX 01 02:03:01
  TRACK 81 AUDIO
    TITLE "2Q_j_1528-1541_81"
    INDEX 01 02:04:20
  TRACK 82 AUDIO
    TITLE "2Q_j_1528-1541_82"
    INDEX 01 02:04:69
  TRACK 83 AUDIO
    TITLE "2Q_j_1528-1541_83"
    INDEX 01 02:07:09
  TRACK 84 AUDIO
    TITLE "2Q_j_1528-1541_84"
    INDEX 01 02:07:54
  TRACK 85 AUDIO
    TITLE "2Q_j_1528-1541_85"
    INDEX 01 02:12:10
